<?xml version="1.0" standalone="no"?>
<!DOCTYPE svg PUBLIC "-//W3C//DTD SVG 1.0//EN" "http://www.w3.org/TR/2001/REC-SVG-20010904/DTD/svg10.dtd">
<svg xmlns="http://www.w3.org/2000/svg" xmlns:xlink="http://www.w3.org/1999/xlink" id="body_1" width="16" height="17">

<defs>
    <clipPath  id="1">

    <path id=""  clip-rule="evenodd" transform="matrix(1 0 0 1 0 0)"  d="M12.75 13L0 13L0 13L0 -0.5L0 -0.5L12.75 -0.5L12.75 -0.5L12.75 13z" />    </clipPath>
</defs>

<g transform="matrix(1.3333 0 0 1.3333 0 0)">
	<g clip-path="url(#1)" >
    <path id=""  transform="matrix(1 0 0 -1 0 13)"  d="M12.393074 1.9548974L12.393074 1.9548974L12.393074 1.9548974L3.1086674 11.223375L3.1086674 11.223375L10.267725 11.2074L10.267725 11.2074L10.267725 11.2074L10.267725 11.2074L10.267725 12.9492L10.267725 12.9492L10.267725 12.9492L10.267725 12.9492L0.13636349 12.9492L0.13636349 12.9492L0.13636349 12.9492L0.13636349 12.9492L0.13636349 2.8338075L0.13636349 2.8338075L1.8622124 2.817825L1.8622124 2.817825L1.8622124 2.817825L1.8622124 2.817825L1.8622124 9.97695L1.8622124 9.97695L11.14665 0.7084523L11.14665 0.7084523L12.393074 1.9548974z" stroke="#FFFFFF" stroke-width="1" fill="#FFFFFF" fill-rule="nonzero" />
	</g>
</g>
</svg>